<?xml version="1.0" standalone="no"?>
<!DOCTYPE svg PUBLIC "-//W3C//DTD SVG 20010904//EN"
 "http://www.w3.org/TR/2001/REC-SVG-20010904/DTD/svg10.dtd">
<svg version="1.0" xmlns="http://www.w3.org/2000/svg"
 width="283.000000pt" height="283.000000pt" viewBox="0 0 283.000000 283.000000"
 preserveAspectRatio="xMidYMid meet">
<metadata>
Created by potrace 1.11, written by Peter Selinger 2001-2013
</metadata>
<g transform="translate(0.000000,283.000000) scale(0.100000,-0.100000)"
fill="#000000" stroke="none">
<path d="M10 1420 l0 -1400 1400 0 1400 0 0 1400 0 1400 -1400 0 -1400 0 0
-1400z m2790 0 l0 -1390 -1390 0 -1390 0 0 1390 0 1390 1390 0 1390 0 0 -1390z"/>
<path d="M1263 1980 c-67 -27 -127 -92 -147 -161 -9 -29 -16 -61 -16 -70 0
-45 24 -122 54 -171 l32 -54 -49 -30 c-62 -37 -123 -103 -150 -162 -34 -73
-30 -181 8 -250 34 -63 71 -96 143 -130 130 -59 312 -30 445 72 l49 37 68 -65
68 -66 78 0 78 0 -64 68 c-36 37 -84 88 -108 113 l-43 46 26 44 c32 55 61 147
70 222 l7 58 -53 -3 -53 -3 -12 -65 c-14 -74 -46 -162 -61 -167 -12 -4 -331
324 -367 378 -70 103 -47 224 51 265 85 37 172 0 215 -91 13 -28 17 -30 58
-27 59 5 66 13 51 62 -15 51 -71 115 -125 142 -60 31 -184 35 -253 8z m146
-687 l150 -157 -21 -24 c-34 -35 -136 -81 -198 -88 -79 -9 -136 9 -186 60 -68
67 -80 156 -35 245 22 42 103 121 125 121 8 0 82 -71 165 -157z"/>
<path d="M480 1774 c-144 -39 -255 -156 -289 -305 -15 -64 -13 -176 4 -242 34
-129 104 -218 215 -271 60 -29 73 -31 175 -31 104 0 114 2 175 32 36 18 78 46
95 63 l29 30 -30 30 -29 30 -48 -34 c-123 -87 -316 -68 -406 41 -71 86 -95
239 -57 367 25 84 108 167 191 191 86 25 176 17 251 -24 31 -17 63 -31 70 -31
12 0 54 50 54 64 0 3 -24 21 -52 40 -94 62 -230 82 -348 50z"/>
<path d="M1970 1735 l0 -45 234 -2 234 -3 -215 -305 c-266 -377 -273 -387
-273 -422 l0 -28 315 0 315 0 0 45 0 45 -239 2 -238 3 243 345 c198 280 244
351 244 377 l0 33 -310 0 -310 0 0 -45z"/>
</g>
</svg>
